<svg height="512pt" viewBox="0 0 512 512" width="512pt" xmlns="http://www.w3.org/2000/svg"><path d="m15 256h432.730469v-241h-367.742188c-35.890625 0-64.988281 29.097656-64.988281 64.988281zm0 0" fill="#725d57"/><path d="m239.929688 15h207.800781v241h-207.800781zm0 0" fill="#68544f"/><path d="m60 79.265625h387.730469v176.734375h-387.730469zm0 0" fill="#dfd7d5"/><path d="m239.929688 79.269531h207.800781v176.730469h-207.800781zm0 0" fill="#d2c5c2"/><path d="m428.464844 98.53125h-349.199219c-10.640625 0-19.265625-8.625-19.265625-19.265625s8.625-19.265625 19.265625-19.265625h349.199219c10.640625 0 19.265625 8.625 19.265625 19.265625s-8.625 19.265625-19.265625 19.265625zm0 0" fill="#ede9e8"/><path d="m447.730469 79.261719v.007812c0 10.628907-8.628907 19.261719-19.269531 19.261719h-188.53125v-38.53125h188.53125c10.640624 0 19.269531 8.628906 19.269531 19.261719zm0 0" fill="#dfd7d5"/><path d="m400.601562 128.53125h-321.332031c-27.167969 0-49.269531-22.101562-49.269531-49.261719 0-27.167969 22.101562-49.269531 49.269531-49.269531h353.460938c8.289062 0 15-6.71875 15-15s-6.710938-15-15-15h-353.460938c-43.710937 0-79.269531 35.558594-79.269531 79.269531v353.460938c0 43.710937 35.558594 79.269531 79.269531 79.269531h321.332031c43.707032 0 79.269532-35.558594 79.269532-79.269531v-224.929688c0-43.710937-35.5625-79.269531-79.269532-79.269531zm0 0" fill="#b32445"/><path d="m432.730469 30h-192.800781v-30h192.800781c8.289062 0 15 6.71875 15 15s-6.710938 15-15 15zm0 0" fill="#922338"/><path d="m479.871094 207.800781v224.929688c0 43.710937-35.5625 79.269531-79.269532 79.269531h-160.671874v-383.46875h160.671874c17.636719 0 33.949219 5.789062 47.128907 15.570312 19.488281 14.449219 32.140625 37.628907 32.140625 63.699219zm0 0" fill="#922338"/><path d="m303.128906 288.128906c0-12.589844-4.898437-24.429687-13.800781-33.308594-8.898437-8.910156-20.726563-13.820312-33.328125-13.820312h-1.070312v-17.128906c0-8.292969-6.710938-15-15-15-8.28125 0-15 6.707031-15 15v17.128906h-33.199219c-8.28125 0-15 6.71875-15 15s6.71875 15 15 15h1.070312v98.53125h-1.070312c-8.28125 0-15 6.71875-15 15 0 8.289062 6.71875 15 15 15h33.199219v17.140625c0 8.277344 6.71875 15 15 15 8.289062 0 15-6.722656 15-15v-17.140625h1.070312c12.601562 0 24.429688-4.902344 33.320312-13.800781 8.910157-8.902344 13.808594-20.730469 13.808594-33.332031 0-12.410157-4.808594-23.707032-12.679687-32.128907 7.871093-8.429687 12.679687-19.730469 12.679687-32.140625zm-35.023437 76.390625c-3.230469 3.234375-7.53125 5.015625-12.105469 5.015625h-33.199219v-34.320312c.351563.023437.707031.054687 1.066407.054687h32.132812c9.445312 0 17.132812 7.683594 17.132812 17.132813 0 4.574218-1.78125 8.871094-5.027343 12.117187zm-12.105469-59.253906h-32.132812c-.359376 0-.714844.03125-1.066407.054687v-34.320312h33.199219c4.574219 0 8.875 1.78125 12.117188 5.027344 3.234374 3.230468 5.015624 7.53125 5.015624 12.105468 0 9.449219-7.6875 17.132813-17.132812 17.132813zm0 0" fill="#fdbf00"/><g fill="#ff9f00"><path d="m303.128906 288.128906c0-12.039062-4.480468-23.398437-12.660156-32.128906-.367188-.398438-.75-.789062-1.140625-1.179688-8.898437-8.910156-20.726563-13.820312-33.328125-13.820312h-1.070312v-17.128906c0-8.292969-6.710938-15-15-15v62.128906h16.070312c4.578125 0 8.878906 1.78125 12.121094 5.03125 3.230468 3.230469 5.007812 7.527344 5.007812 12.097656 0 9.449219-7.679687 17.140625-17.128906 17.140625h-16.070312v30h16.070312c9.449219 0 17.128906 7.679688 17.128906 17.128907 0 4.582031-1.777344 8.871093-5.019531 12.121093-3.230469 3.230469-7.53125 5.011719-12.109375 5.011719h-16.070312v62.140625c8.289062 0 15-6.722656 15-15v-17.140625h1.070312c12.601562 0 24.429688-4.902344 33.320312-13.800781 8.910157-8.902344 13.808594-20.730469 13.808594-33.332031 0-12.410157-4.808594-23.707032-12.679687-32.128907 7.871093-8.429687 12.679687-19.730469 12.679687-32.140625zm0 0"/><path d="m512 256v128.53125s-38 0-63.199219 0c-35.492187 0-64.269531-28.773438-64.269531-64.265625s28.777344-64.265625 64.269531-64.265625zm0 0"/></g></svg>